<svg width="50" height="44" viewBox="0 0 50 44" fill="none" xmlns="http://www.w3.org/2000/svg">
<path fill-rule="evenodd" clip-rule="evenodd" d="M46.4286 7.17642C42.4785 7.17642 39.2929 10.743 39.2929 15.1421C39.2929 18.4648 41.1428 21.2994 43.7356 22.498L43.7069 22.5624C47.4071 24.2637 50 27.9448 50 32.2939C50 38.2505 45.2001 43.0585 39.2929 43.0585C33.3641 43.0585 28.5786 38.2505 28.5786 32.2939V25.1175C28.5786 11.2526 36.5641 0 46.4286 0C48.4072 0 50 1.60752 50 3.58821C50 5.5689 48.4072 7.17641 46.4286 7.17641L46.4286 7.17642ZM21.4357 32.2939C21.4357 38.2505 16.6358 43.0585 10.7143 43.0585C4.7999 43.0585 0 38.2505 0 32.2939V25.1175C0 11.2526 7.9998 9.38601e-06 17.85 9.38601e-06C19.8287 9.38601e-06 21.4358 1.60753 21.4358 3.58822C21.4358 5.56891 19.8287 7.17642 17.85 7.17642C13.9143 7.17642 10.7143 10.743 10.7143 15.1421C10.7143 18.4648 12.5359 21.2994 15.1427 22.498L15.1287 22.5484C18.8428 24.2492 21.4358 27.9448 21.4358 32.2939L21.4357 32.2939Z" fill="#006624"/>
</svg>
